<?xml version="1.0" encoding="utf-8"?>
<!-- Generator: Adobe Illustrator 21.0.0, SVG Export Plug-In . SVG Version: 6.00 Build 0)  -->
<svg version="1.1" id="Capa_1" xmlns="http://www.w3.org/2000/svg" xmlns:xlink="http://www.w3.org/1999/xlink" x="0px" y="0px"
	 viewBox="0 0 44.6 44.6" enable-background="new 0 0 44.6 44.6" xml:space="preserve">
<g>
	<polygon fill="#333333" points="15.1,17.7 11.7,26.3 19,26.3 15.4,17.7 	"/>
	<path fill="#333333" d="M36.1,0H8.4C3.8,0,0,3.8,0,8.4v27.7c0,4.6,3.8,8.4,8.4,8.4h27.8c4.6,0,8.3-3.7,8.3-8.4V8.4
		C44.5,3.8,40.7,0,36.1,0z M30.4,35h-12v-0.9c1.2,0,2-0.2,2.4-0.3c0.4-0.2,0.6-0.6,0.6-1.2c0-0.3-0.1-0.7-0.3-1.3
		c-0.1-0.4-0.3-0.8-0.5-1.3l-0.9-2.3h-8.3c-0.5,1.5-0.9,2.4-1.1,2.9c-0.3,1-0.5,1.7-0.5,2.1c0,0.5,0.4,0.9,1.1,1.2
		c0.4,0.1,1.1,0.2,1.9,0.2V35H5v-0.8c0.9-0.1,1.6-0.5,2.2-1.2c0.4-0.5,0.9-1.5,1.5-3.1L17,9.6h1L26.3,29c0.9,2.2,1.6,3.6,2.1,4.2
		c0.5,0.6,1.1,0.9,2,0.9V35z M39.6,16.1h-3.9V20H31v-3.9h-3.9v-4.7H31V7.5h4.7v3.9h3.9V16.1z"/>
</g>
</svg>
