<?xml version="1.0" encoding="utf-8"?>
<!-- Generator: Adobe Illustrator 21.0.0, SVG Export Plug-In . SVG Version: 6.00 Build 0)  -->
<svg version="1.1" id="Capa_1" xmlns="http://www.w3.org/2000/svg" xmlns:xlink="http://www.w3.org/1999/xlink" x="0px" y="0px"
	 viewBox="0 0 44.6 44.6" enable-background="new 0 0 44.6 44.6" xml:space="preserve">
<path fill="#333333" d="M36.2,44.5H8.4c-4.6,0-8.4-3.8-8.4-8.4V8.4C0,3.8,3.8,0,8.4,0h27.7c4.6,0,8.4,3.8,8.4,8.4v27.7
	C44.5,40.8,40.8,44.5,36.2,44.5z M8.5,31.5H14v-0.7c-0.6,0-1.1-0.1-1.4-0.2c-0.5-0.2-0.8-0.5-0.8-0.8c0-0.3,0.1-0.8,0.4-1.5
	c0.1-0.3,0.4-1,0.8-2.1h6l0.7,1.6c0.1,0.4,0.3,0.7,0.4,0.9c0.1,0.4,0.2,0.7,0.2,1c0,0.5-0.1,0.7-0.4,0.9c-0.3,0.1-0.8,0.2-1.7,0.2
	v0.7h8.7v-0.7c-0.6,0-1.1-0.2-1.4-0.7c-0.3-0.5-0.8-1.5-1.5-3l-6-14h-0.7l-5.9,14.6c-0.5,1.2-0.8,1.9-1.1,2.2
	c-0.4,0.5-0.9,0.8-1.6,0.9V31.5z M13.4,25.2l2.4-6.2H16l2.6,6.2H13.4z M28.6,16.1h11v-4.7h-11V16.1z"/>
</svg>
